<svg width="29" height="29" viewBox="0 0 29 29" fill="none" xmlns="http://www.w3.org/2000/svg">
<g clip-path="url(#clip0_11_140)">
<rect width="29" height="29" fill="white" fill-opacity="0.69"/>
<path d="M5.68605 0.00708008C2.56226 0.00708008 0.00561523 2.56366 0.00561523 5.68751V23.3149C0.00561523 26.4387 2.5622 28.9944 5.68605 28.9944H23.3134C26.4373 28.9944 28.9929 26.4387 28.9929 23.3149V5.68751C28.9929 2.56372 26.4373 0.00708008 23.3134 0.00708008H5.68605ZM7.11476 4.79057C8.61255 4.79057 9.53513 5.77385 9.56361 7.06635C9.56361 8.33031 8.6125 9.34122 7.08579 9.34122H7.05769C5.58841 9.34122 4.63874 8.33037 4.63874 7.06635C4.63874 5.77388 5.61714 4.79057 7.11473 4.79057H7.11476ZM20.0221 10.8316C22.9026 10.8316 25.062 12.7143 25.062 16.7602V24.3132H20.6844V17.2666C20.6844 15.4959 20.0508 14.2878 18.4666 14.2878C17.2571 14.2878 16.5363 15.102 16.2197 15.8886C16.1041 16.1701 16.0757 16.5631 16.0757 16.9568V24.3132H11.6981C11.6981 24.3132 11.7555 12.3764 11.6981 11.1405H16.0766V13.0059C16.6583 12.1083 17.6989 10.8315 20.0221 10.8315V10.8316ZM4.89696 11.1414H9.2746V24.3133H4.89696V11.1414Z" fill="black"/>
</g>
<defs>
<clipPath id="clip0_11_140">
<rect width="29" height="29" fill="white"/>
</clipPath>
</defs>
</svg>
