<svg width="68" height="36" viewBox="0 0 68 36" fill="none" xmlns="http://www.w3.org/2000/svg">
<path d="M14.875 0C15.4386 0 15.9791 0.117519 16.3776 0.326705C16.7761 0.53589 17 0.819606 17 1.11544V2.23088H51V1.11544C51 0.819606 51.2239 0.53589 51.6224 0.326705C52.0209 0.117519 52.5614 0 53.125 0C53.6886 0 54.2291 0.117519 54.6276 0.326705C55.0261 0.53589 55.25 0.819606 55.25 1.11544V2.23088H59.5C61.7543 2.23088 63.9163 2.70096 65.5104 3.5377C67.1045 4.37444 68 5.5093 68 6.69264V31.2323C68 32.4156 67.1045 33.5505 65.5104 34.3872C63.9163 35.224 61.7543 35.6941 59.5 35.6941H8.5C6.24566 35.6941 4.08365 35.224 2.48959 34.3872C0.895533 33.5505 0 32.4156 0 31.2323V6.69264C0 5.5093 0.895533 4.37444 2.48959 3.5377C4.08365 2.70096 6.24566 2.23088 8.5 2.23088H12.75V1.11544C12.75 0.819606 12.9739 0.53589 13.3724 0.326705C13.7709 0.117519 14.3114 0 14.875 0V0ZM4.25 8.92352V31.2323C4.25 31.824 4.69777 32.3914 5.4948 32.8098C6.29183 33.2281 7.37283 33.4632 8.5 33.4632H59.5C60.6272 33.4632 61.7082 33.2281 62.5052 32.8098C63.3022 32.3914 63.75 31.824 63.75 31.2323V8.92352H4.25Z" fill="#4B2A63"/>
</svg>
